#N canvas 150 342 1287 542 10;
#X floatatom 264 -412 5 0 0 0 - - -;
#X floatatom 335 -412 5 0 0 0 - - -;
#X floatatom 550 -413 5 0 0 0 - - -;
#X floatatom 621 -414 5 0 0 0 - - -;
#X obj 620 -556 hip~ 800;
#X obj 621 -526 lop~ 2400;
#X obj 264 -442 env~ 8192;
#X obj 335 -442 env~ 8192;
#X obj 550 -442 env~ 8192;
#X obj 621 -443 env~ 8192;
#X obj 296 -373 /;
#X floatatom 296 -343 5 0 0 0 - - -;
#X obj 334 -556 hip~ 300;
#X obj 335 -526 lop~ 700;
#X obj 583 -373 /;
#X floatatom 583 -342 5 0 0 0 - - -;
#X text 541 -541 F2 range =>;
#X text 325 -373 <= compute ratios between low and high =>;
#X obj -6 -444 metro 1000;
#X obj -6 -298 s formant1;
#X obj 296 -316 * 600;
#X obj 264 -473 bp~ 300 2;
#X obj 335 -473 bp~ 700 2;
#X obj 550 -473 bp~ 800 2;
#X obj 621 -473 bp~ 2400 2;
#X obj 583 -316 * 1600;
#X obj -6 -327 hist 0 1000 50;
#X text 248 -541 F1 range =>;
#X obj 177 -389 r toggle;
#X obj 101 -372 spigot;
#X obj 101 -282 s F1sd;
#X msg -6 -412 relative;
#X obj 296 -284 s f1_data;
#X obj 101 -412 r f1_data;
#X obj 583 -284 s f2_data;
#X obj -6 -475 r toggle;
#X obj 101 -337 sdmean;
#X obj -122 -413 r clearg;
#X msg -122 -328 \; formant1 const 0;
#X obj 134 -304 s F1avg;
#X obj 825 -448 metro 1000;
#X obj 1008 -393 r toggle;
#X obj 932 -376 spigot;
#X msg 825 -416 relative;
#X obj 825 -479 r toggle;
#X obj 932 -341 sdmean;
#X obj 709 -417 r clearg;
#X msg 709 -332 \; formant2 const 0;
#X obj 825 -331 hist 500 2700 50;
#X obj 825 -302 s formant2;
#X obj 932 -416 r f2_data;
#X obj 965 -308 s F2avg;
#X obj 932 -286 s F2sd;
#X obj 476 -665 r~ AudioData;
#X connect 0 0 10 0;
#X connect 1 0 10 1;
#X connect 2 0 14 0;
#X connect 3 0 14 1;
#X connect 4 0 5 0;
#X connect 5 0 23 0;
#X connect 5 0 24 0;
#X connect 6 0 0 0;
#X connect 7 0 1 0;
#X connect 8 0 2 0;
#X connect 9 0 3 0;
#X connect 10 0 11 0;
#X connect 11 0 20 0;
#X connect 12 0 13 0;
#X connect 13 0 21 0;
#X connect 13 0 22 0;
#X connect 14 0 15 0;
#X connect 15 0 25 0;
#X connect 18 0 31 0;
#X connect 20 0 32 0;
#X connect 21 0 6 0;
#X connect 22 0 7 0;
#X connect 23 0 8 0;
#X connect 24 0 9 0;
#X connect 25 0 34 0;
#X connect 26 0 19 0;
#X connect 28 0 29 1;
#X connect 29 0 36 0;
#X connect 31 0 26 0;
#X connect 33 0 26 0;
#X connect 33 0 29 0;
#X connect 35 0 18 0;
#X connect 36 0 30 0;
#X connect 36 1 39 0;
#X connect 37 0 38 0;
#X connect 37 0 26 0;
#X connect 38 0 19 0;
#X connect 40 0 43 0;
#X connect 41 0 42 1;
#X connect 42 0 45 0;
#X connect 43 0 48 0;
#X connect 44 0 40 0;
#X connect 45 0 52 0;
#X connect 45 1 51 0;
#X connect 46 0 47 0;
#X connect 46 0 48 0;
#X connect 47 0 49 0;
#X connect 48 0 49 0;
#X connect 50 0 42 0;
#X connect 50 0 48 0;
#X connect 53 0 12 0;
#X connect 53 0 4 0;
#X coords 0 542 1 541 85 60 0;
