#N canvas 222 60 1305 813 10;
#X obj 298 -345 adc~;
#X floatatom 113 -143 5 0 0 0 - - -;
#X floatatom 185 -143 5 0 0 0 - - -;
#X floatatom 400 -143 5 0 0 0 - - -;
#X floatatom 472 -143 5 0 0 0 - - -;
#X obj 469 -287 hip~ 800;
#X obj 470 -257 lop~ 2400;
#X obj 113 -173 env~ 8192;
#X obj 185 -173 env~ 8192;
#X obj 400 -173 env~ 8192;
#X obj 472 -173 env~ 8192;
#X obj 145 -104 /;
#X floatatom 145 -74 5 0 0 0 - - -;
#X obj 183 -287 hip~ 300;
#X obj 184 -257 lop~ 700;
#X obj 432 -104 /;
#X floatatom 432 -73 5 0 0 0 - - -;
#X text 118 -344 FORMANT TRACKER;
#X text 390 -272 F2 range =>;
#X text 174 -104 <= compute ratios between low and high =>;
#X text 274 -366 Audio Input;
#X obj 189 95 metro 1000;
#X obj 189 203 s formant1;
#X obj 478 88 metro 1000;
#X obj 478 197 s formant2;
#X obj 145 -38 * 600;
#X obj 112 -204 bp~ 300 2;
#X obj 185 -204 bp~ 700 2;
#X obj 399 -204 bp~ 800 2;
#X obj 471 -204 bp~ 2400 2;
#X obj 432 -36 * 1600;
#X obj 189 170 hist 0 1000 50;
#X obj 478 160 hist 500 2700 50;
#X text 97 -272 F1 range =>;
#X obj -64 181 s F1avg;
#X obj 660 161 s F2avg;
#X obj -64 146 spigot;
#X obj -142 74 r toggle;
#X obj 775 106 r toggle;
#X obj 660 130 spigot;
#X obj -220 96 spigot;
#X obj -220 167 s F1sd;
#X obj 873 101 spigot;
#X obj 873 171 s F2sd;
#X msg 478 121 relative;
#X msg 189 127 relative;
#X obj 145 -8 s f1_data;
#X obj -220 57 r f1_data;
#X obj -64 56 r f1_data;
#X obj 279 130 r f1_data;
#X obj 478 58 r toggle;
#X obj 5 123 r toggle;
#X obj 432 -3 s f2_data;
#X obj 568 122 r f2_data;
#X obj 660 69 r f2_data;
#X obj 873 67 r f2_data;
#X obj 954 82 r toggle;
#X obj 189 64 r toggle;
#X obj 346 85 r clearg;
#X obj -64 99 sdmean;
#X obj -220 131 sdmean;
#X obj 873 138 sdmean;
#X obj 660 100 sdmean;
#X msg 345 159 \; formant2 const 0;
#X msg 410 118 clear;
#X obj 73 90 r clearg;
#X msg 140 122 clear;
#X msg 73 166 \; formant1 const 0;
#X connect 0 0 5 0;
#X connect 0 0 13 0;
#X connect 1 0 11 0;
#X connect 2 0 11 1;
#X connect 3 0 15 0;
#X connect 4 0 15 1;
#X connect 5 0 6 0;
#X connect 6 0 28 0;
#X connect 6 0 29 0;
#X connect 7 0 1 0;
#X connect 8 0 2 0;
#X connect 9 0 3 0;
#X connect 10 0 4 0;
#X connect 11 0 12 0;
#X connect 12 0 25 0;
#X connect 13 0 14 0;
#X connect 14 0 26 0;
#X connect 14 0 27 0;
#X connect 15 0 16 0;
#X connect 16 0 30 0;
#X connect 21 0 45 0;
#X connect 23 0 44 0;
#X connect 25 0 46 0;
#X connect 26 0 7 0;
#X connect 27 0 8 0;
#X connect 28 0 9 0;
#X connect 29 0 10 0;
#X connect 30 0 52 0;
#X connect 31 0 22 0;
#X connect 32 0 24 0;
#X connect 36 0 34 0;
#X connect 37 0 40 1;
#X connect 38 0 39 1;
#X connect 39 0 35 0;
#X connect 40 0 60 0;
#X connect 42 0 61 0;
#X connect 44 0 32 0;
#X connect 45 0 31 0;
#X connect 47 0 40 0;
#X connect 48 0 59 0;
#X connect 49 0 31 0;
#X connect 50 0 23 0;
#X connect 51 0 36 1;
#X connect 53 0 32 0;
#X connect 54 0 62 0;
#X connect 55 0 42 0;
#X connect 56 0 42 1;
#X connect 57 0 21 0;
#X connect 58 0 63 0;
#X connect 58 0 64 0;
#X connect 59 1 36 0;
#X connect 60 0 41 0;
#X connect 61 0 43 0;
#X connect 62 1 39 0;
#X connect 63 0 24 0;
#X connect 64 0 32 0;
#X connect 65 0 67 0;
#X connect 65 0 66 0;
#X connect 66 0 31 0;
#X connect 67 0 22 0;
#X coords 0 813 1 812 85 60 0;
