#N canvas 265 184 1340 631 10;
#X floatatom 186 -327 5 0 0 0 - - -;
#X floatatom 257 -327 5 0 0 0 - - -;
#X floatatom 604 -329 5 0 0 0 - - -;
#X floatatom 675 -330 5 0 0 0 - - -;
#X obj 674 -472 hip~ 800;
#X obj 675 -442 lop~ 2400;
#X obj 186 -357 env~ 8192;
#X obj 257 -357 env~ 8192;
#X obj 604 -358 env~ 8192;
#X obj 675 -359 env~ 8192;
#X obj 218 -288 /;
#X floatatom 218 -258 5 0 0 0 - - -;
#X obj 256 -471 hip~ 300;
#X obj 257 -441 lop~ 700;
#X obj 637 -289 /;
#X floatatom 638 -255 5 0 0 0 - - -;
#X text 595 -457 F2 range =>;
#X text 319 -290 <= compute ratios between low and high =>;
#X obj 638 -229 * 1600;
#X text 170 -456 F1 range =>;
#X obj 853 -199 metro 1000;
#X obj 638 -161 spigot;
#X msg 853 -167 relative;
#X obj 853 -235 r toggle;
#X obj 737 -159 r clearg;
#X msg 737 -83 \; formant2 const 0;
#X obj 853 -142 hist 500 2700 50;
#X obj 853 -53 s formant2;
#X obj 671 -75 s F2avg;
#X obj 638 -53 s F2sd;
#X obj 473 -566 r~ AudioData;
#X text 378 -590 Receive signal from sound file or microphone;
#X text 817 -255 Turn output on or off;
#X obj 433 -180 metro 1000;
#X obj 218 -142 spigot;
#X msg 433 -148 relative;
#X obj 433 -216 r toggle;
#X obj 317 -140 r clearg;
#X text 394 -233 Turn output on or off;
#X msg 317 -64 \; formant1 const 0;
#X obj 433 -123 hist 0 1000 50;
#X obj 433 -34 s formant1;
#X obj 251 -56 s F1avg;
#X obj 218 -34 s F1sd;
#X text 145 -9 Calculate standard dev and mean;
#X text 558 -34 Calculate standard dev and mean;
#X text 395 -15 Send data to array formant1;
#X obj 638 -108 sdmean;
#X obj 218 -89 sdmean;
#X text 817 -34 Send data to array formant2;
#X obj 218 -231 * 500;
#X obj 186 -388 bp~ 300 50;
#X obj 257 -388 bp~ 700 50;
#X obj 604 -389 bp~ 800 50;
#X obj 675 -389 bp~ 2400 50;
#X connect 0 0 10 1;
#X connect 1 0 10 0;
#X connect 2 0 14 1;
#X connect 3 0 14 0;
#X connect 4 0 5 0;
#X connect 5 0 53 0;
#X connect 5 0 54 0;
#X connect 6 0 0 0;
#X connect 7 0 1 0;
#X connect 8 0 2 0;
#X connect 9 0 3 0;
#X connect 10 0 11 0;
#X connect 11 0 50 0;
#X connect 12 0 13 0;
#X connect 13 0 51 0;
#X connect 13 0 52 0;
#X connect 14 0 15 0;
#X connect 15 0 18 0;
#X connect 18 0 21 0;
#X connect 18 0 26 0;
#X connect 20 0 22 0;
#X connect 21 0 47 0;
#X connect 22 0 26 0;
#X connect 23 0 20 0;
#X connect 23 0 21 1;
#X connect 24 0 25 0;
#X connect 24 0 26 0;
#X connect 25 0 27 0;
#X connect 26 0 27 0;
#X connect 30 0 12 0;
#X connect 30 0 4 0;
#X connect 33 0 35 0;
#X connect 34 0 48 0;
#X connect 35 0 40 0;
#X connect 36 0 33 0;
#X connect 36 0 34 1;
#X connect 37 0 39 0;
#X connect 37 0 40 0;
#X connect 39 0 41 0;
#X connect 40 0 41 0;
#X connect 47 0 29 0;
#X connect 47 1 28 0;
#X connect 48 0 43 0;
#X connect 48 1 42 0;
#X connect 50 0 34 0;
#X connect 50 0 40 0;
#X connect 51 0 6 0;
#X connect 52 0 7 0;
#X connect 53 0 8 0;
#X connect 54 0 9 0;
#X coords 0 631 1 630 85 60 0;
