#N canvas 88 140 948 632 10;
#N canvas 946 42 450 278 (subpatch) 0;
#X array formant1 50 float 5;
#A 0 0 0 0 0 0 0 0 0 0 0 0 0 0 0 0 0 0 0 0 0 0 0 0 0.0104167 0.0130208
0.0559896 0.0807292 0.226562 0.283854 0.329427 0 0 0 0 0 0 0 0 0 0
0 0 0 0 0 0 0 0 0 0;
#X coords 0 1 49 0 200 140 1 0 0;
#X restore 66 123 graph;
#N canvas 0 22 450 278 (subpatch) 0;
#X array formant2 50 float 5;
#A 0 0 0 0 0 0 0 0 0 0 0 0 0 0.00911458 0.0078125 0.0169271 0.0364583
0.0182292 0.0338542 0.0351562 0.0598958 0.102865 0.24349 0.231771 0.154948
0.0494792 0 0 0 0 0 0 0 0 0 0 0 0 0 0 0 0 0 0 0 0 0 0 0 0 0;
#X coords 0 1 49 0 200 140 1 0 0;
#X restore 336 125 graph;
#X obj -26 223 r F1avg;
#X floatatom 71 281 5 0 0 0 - - -;
#X obj 608 235 r F2avg;
#X floatatom 340 281 5 0 0 0 - - -;
#X obj 134 59 bng 15 250 50 0 empty empty empty 17 7 0 10 -262144 -1
-1;
#X obj -25 147 s clearg;
#X text 105 281 F1 average;
#X text 374 282 F2 average;
#X obj 134 74 tgl 15 0 empty empty empty 17 7 0 10 -262144 -1 -1 1
1;
#X obj 260 -3 s toggle;
#X text 155 74 On/Off;
#X text 431 67 Microphone;
#X text 430 54 Recorded Speech;
#X obj 524 57 vradio 15 1 1 2 empty empty empty 0 -8 0 10 -262144 -1
-1 1;
#N canvas 652 110 450 300 audioInput 0;
#X obj 20 -78 select 0 1;
#X obj 145 -116 s BangRecorderAudio;
#X obj 129 9 s BangMicrophone;
#X msg 152 -22 1;
#X msg 149 -55 0;
#X msg 178 -56 1;
#X msg 182 -22 0;
#X obj 20 -105 inlet;
#X text 14 45 In Inlet \, when the value is ZERO;
#X text 15 58 Open Recorded Audio.;
#X text 15 73 When the value is ONE;
#X text 15 88 Open the microphone entry;
#X connect 0 0 5 0;
#X connect 0 0 6 0;
#X connect 0 1 3 0;
#X connect 0 1 4 0;
#X connect 3 0 2 0;
#X connect 4 0 1 0;
#X connect 5 0 1 0;
#X connect 6 0 2 0;
#X connect 7 0 0 0;
#X restore 402 -6 pd audioInput;
#X obj 345 -7 loadbang;
#X msg 345 18 1;
#X obj 575 101 frequencyAndAmplitude~;
#X obj 733 84 *~;
#X obj 734 34 adc~;
#X obj 748 54 r BangMicrophone;
#X obj 551 26 *~;
#X obj -68 80 s LevelVolumeAudio;
#X obj 539 1 r LevelVolumeAudio;
#X text 579 44 Enter Recorded Audio;
#X text 537 -19 Out Audio;
#X obj 52 52 output~;
#N canvas 857 274 450 300 loadaudio 0;
#X obj 133 89 preRecAudio~;
#X obj 228 86 *~;
#X obj 133 32 r BangRecorderAudio;
#X obj 142 60 r loopAudio;
#X obj 229 125 outlet~;
#X obj 119 125 s stopAutoAudio;
#X connect 0 0 1 0;
#X connect 0 1 1 0;
#X connect 0 2 5 0;
#X connect 1 0 4 0;
#X connect 2 0 1 1;
#X connect 2 0 0 0;
#X connect 3 0 0 1;
#X restore 583 62 pd loadaudio;
#X obj -35 263 r F1sd;
#X obj 613 260 r F2sd;
#X floatatom 178 282 5 0 0 0 - - -;
#X floatatom 449 282 5 0 0 0 - - -;
#X text 212 282 F1 st dev;
#X text 486 282 F2 st dev;
#X msg 83 1 0;
#X text 156 58 Reset;
#N canvas 0 22 450 278 (subpatch) 0;
#X array voiced 10 float 3;
#A 0 0.260615 0.0566108 0.0236499 0.00810056 0.00325885 0 0 0 0 0;
#X coords 0 0.5 10 0 200 140 1 0 0;
#X restore 66 360 graph;
#N canvas 0 22 450 278 (subpatch) 0;
#X array voiceless 10 float 3;
#A 0 0.0807673 0.0217062 0 0 0 0 0 0 0 0;
#X coords 0 0.5 10 0 200 140 1 0 0;
#X restore 330 359 graph;
#X obj 2 21 Formant;
#X connect 2 0 3 0;
#X connect 4 0 5 0;
#X connect 6 0 36 0;
#X connect 6 0 7 0;
#X connect 10 0 11 0;
#X connect 15 0 16 0;
#X connect 17 0 18 0;
#X connect 18 0 15 0;
#X connect 19 0 23 0;
#X connect 20 0 19 0;
#X connect 21 0 20 0;
#X connect 22 0 20 1;
#X connect 23 0 28 0;
#X connect 23 0 28 1;
#X connect 25 0 23 1;
#X connect 28 0 24 0;
#X connect 29 0 19 0;
#X connect 30 0 32 0;
#X connect 31 0 33 0;
#X connect 36 0 10 0;
#X coords 0 -1 1 1 500 500 2 50 50;
