#N canvas 563 477 549 324 10;
#X obj 235 87 bng 15 250 50 0 empty empty empty 17 7 0 10 -262144 -1
-1;
#X text 286 38 << Enter a Bang;
#X obj 235 38 inlet;
#X text 222 6 preRecAudio~;
#X obj 235 63 sel 1;
#X obj 235 125 openpanel;
#X obj 235 225 readsf~;
#X msg 340 209 1;
#X obj 235 254 outlet~;
#X obj 340 141 bng 15 250 50 0 empty empty empty 17 7 0 10 -262144
-1 -1;
#X obj 340 178 delay 1000;
#X text 57 63 Select if start or stop >>;
#X text 88 138 Open GUI to select file;
#X text 127 224 Read sound file;
#X text 372 157 Play sound file;
#X obj 314 242 bng 15 250 50 0 empty empty empty 17 7 0 10 -262144
-1 -1;
#X obj 235 156 symbol \$1;
#X msg 235 185 open \$1;
#X connect 0 0 5 0;
#X connect 2 0 4 0;
#X connect 4 0 0 0;
#X connect 5 0 9 0;
#X connect 5 0 16 0;
#X connect 6 0 8 0;
#X connect 6 1 15 0;
#X connect 7 0 6 0;
#X connect 9 0 10 0;
#X connect 10 0 7 0;
#X connect 15 0 10 0;
#X connect 15 0 16 0;
#X connect 16 0 17 0;
#X connect 17 0 6 0;
