#N canvas 547 364 807 466 10;
#X obj 281 109 bng 15 250 50 0 empty empty empty 17 7 0 10 -262144
-1 -1;
#X text 332 60 << Enter a Bang;
#X obj 281 60 inlet;
#X text 59 86 Select if start or stop readfs >>;
#X text 340 -17 preRecAudio~;
#X obj 281 85 sel 1;
#X obj 281 147 openpanel;
#X msg 281 175 open \$1;
#X obj 281 247 readsf~;
#X msg 415 261 1;
#X obj 281 276 outlet~;
#X obj 385 189 bng 15 250 50 0 empty empty empty 17 7 0 10 -262144
-1 -1;
#X obj 397 225 delay 1000;
#X connect 0 0 6 0;
#X connect 2 0 5 0;
#X connect 5 0 0 0;
#X connect 6 0 7 0;
#X connect 6 0 11 0;
#X connect 7 0 8 0;
#X connect 8 0 10 0;
#X connect 9 0 8 0;
#X connect 11 0 12 0;
#X connect 12 0 9 0;
