#N canvas 639 50 310 313 10;
#X obj 174 59 +;
#X floatatom 176 112 5 0 0 0 - - -;
#X obj 49 164 /;
#X floatatom 49 195 5 0 0 0 - - -;
#X obj -17 96 +;
#X floatatom 105 119 5 0 0 0 - - -;
#X obj 48 135 t b f;
#X obj 49 95 +;
#X obj -17 44 pow 2;
#X obj 47 39 bng 15 250 50 0 empty empty empty 17 7 0 10 -262144 -1
-1;
#X msg 49 66 1;
#X floatatom -17 143 5 0 0 0 - - -;
#X text 49 276 Mean;
#X text -25 276 Sum of x^2;
#X obj 176 169 pow 2;
#X text 160 277 (Sum of x)^2;
#X obj 50 254 s avg;
#X obj 106 255 s n;
#X obj -17 254 s sx^2;
#X text 92 277 Counter(n);
#X obj 176 255 s (sx)^2;
#X obj -17 10 random 12;
#X obj 76 12 bng 15 250 50 0 empty empty empty 17 7 0 10 -262144 -1
-1;
#X obj 140 32 print;
#X floatatom 203 216 5 0 0 0 - - -;
#X connect 0 0 1 0;
#X connect 1 0 2 0;
#X connect 1 0 0 1;
#X connect 1 0 14 0;
#X connect 2 0 3 0;
#X connect 3 0 16 0;
#X connect 4 0 11 0;
#X connect 5 0 7 1;
#X connect 5 0 6 0;
#X connect 5 0 17 0;
#X connect 6 0 2 0;
#X connect 6 1 2 1;
#X connect 7 0 5 0;
#X connect 8 0 4 0;
#X connect 9 0 10 0;
#X connect 10 0 7 0;
#X connect 11 0 4 1;
#X connect 11 0 18 0;
#X connect 14 0 20 0;
#X connect 14 0 24 0;
#X connect 21 0 9 0;
#X connect 21 0 0 0;
#X connect 21 0 8 0;
#X connect 21 0 23 0;
#X connect 22 0 21 0;
