#N canvas 966 57 450 300 10;
#X obj 14 -2 r n;
#X obj 52 -1 r sx^2;
#X obj 25 59 *;
#X obj 85 99 -;
#X obj 120 9 r (sx)^2;
#X obj 9 101 pow 2;
#X obj 48 146 /;
#X obj 47 185 sqrt;
#X floatatom 46 232 5 0 0 0 - - -;
#X floatatom 143 151 5 0 0 0 - - -;
#X floatatom 152 74 5 0 0 0 - - -;
#X floatatom 152 211 5 0 0 0 - - -;
#X floatatom 144 244 5 0 0 0 - - -;
#X obj 67 32 t b f;
#X connect 0 0 2 0;
#X connect 0 0 5 0;
#X connect 1 0 13 0;
#X connect 2 0 3 0;
#X connect 2 0 10 0;
#X connect 3 0 6 0;
#X connect 3 0 11 0;
#X connect 4 0 3 1;
#X connect 5 0 6 1;
#X connect 5 0 9 0;
#X connect 6 0 7 0;
#X connect 6 0 12 0;
#X connect 7 0 8 0;
#X connect 13 0 2 0;
#X connect 13 1 2 1;
