#N canvas 954 22 450 300 10;
#X obj 450 28 -;
#X obj 450 -20 r sx^2;
#X obj 504 -21 r (sx)^2;
#X obj 345 -20 r n;
#X obj 245 -19 r n;
#X obj 245 30 -;
#X obj 245 63 s n-1;
#X obj 385 -19 r n-1;
#X obj 345 18 *;
#X msg 289 13 1;
#X obj 345 66 s n(n-1);
#X obj 450 71 s sx^2-(sx)^2;
#X obj 243 160 /;
#X msg 243 125 1;
#X obj 282 126 r n(n-1);
#X obj 243 198 s 1/n(n-1);
#X obj 403 169 *;
#X obj 403 125 r 1/n(n-1);
#X obj 483 126 r sx^2-(sx)^2;
#X obj 403 207 s sd;
#X connect 0 0 11 0;
#X connect 1 0 0 0;
#X connect 2 0 0 1;
#X connect 3 0 8 0;
#X connect 4 0 5 0;
#X connect 4 0 9 0;
#X connect 5 0 6 0;
#X connect 7 0 8 1;
#X connect 8 0 10 0;
#X connect 9 0 5 1;
#X connect 12 0 15 0;
#X connect 13 0 12 0;
#X connect 14 0 12 1;
#X connect 14 0 13 0;
#X connect 16 0 19 0;
#X connect 17 0 16 0;
#X connect 18 0 16 1;
