#N canvas 900 67 335 485 10;
#X obj 92 -79 +;
#X floatatom 92 -31 5 0 0 0 - - -;
#X obj 88 97 /;
#X floatatom 87 134 5 0 0 0 - - -;
#X obj -42 -26 +;
#X floatatom -114 46 5 0 0 0 - - -;
#X obj 92 61 t b f;
#X obj -114 4 +;
#X obj -42 -55 pow 2;
#X obj -115 -52 bng 15 250 50 0 empty empty empty 17 7 0 10 -262144
-1 -1;
#X msg -114 -25 1;
#X floatatom -42 7 5 0 0 0 - - -;
#X text 91 198 Mean;
#X obj 92 15 pow 2;
#X obj -114 -137 inlet;
#X obj -42 80 *;
#X obj -42 124 -;
#X obj -114 80 pow 2;
#X obj -43 174 /;
#X obj -43 216 sqrt;
#X obj -42 36 t b f;
#X obj -43 251 outlet;
#X obj 86 181 outlet;
#X text -81 273 Standard Dev (Sample);
#X obj 21 -17 r clearg;
#X msg 21 20 0;
#X text -137 -76 comment;
#X text 12 41 Count(n);
#X text -109 -165 Calculate standard deviation and average;
#X connect 0 0 1 0;
#X connect 1 0 2 0;
#X connect 1 0 0 1;
#X connect 1 0 13 0;
#X connect 2 0 3 0;
#X connect 3 0 22 0;
#X connect 4 0 11 0;
#X connect 5 0 7 1;
#X connect 5 0 6 0;
#X connect 5 0 17 0;
#X connect 5 0 15 0;
#X connect 6 0 2 0;
#X connect 6 1 2 1;
#X connect 7 0 5 0;
#X connect 8 0 4 0;
#X connect 9 0 10 0;
#X connect 10 0 7 0;
#X connect 11 0 4 1;
#X connect 11 0 20 0;
#X connect 13 0 16 1;
#X connect 14 0 9 0;
#X connect 14 0 0 0;
#X connect 14 0 8 0;
#X connect 15 0 16 0;
#X connect 16 0 18 0;
#X connect 17 0 18 1;
#X connect 18 0 19 0;
#X connect 19 0 21 0;
#X connect 20 0 15 0;
#X connect 20 1 15 1;
#X connect 24 0 25 0;
#X connect 25 0 5 0;
#X connect 25 0 11 0;
#X connect 25 0 1 0;
