#N canvas 473 113 1137 587 10;
#X obj 409 -194 zerocross;
#X floatatom 409 -158 5 0 0 0 - - -;
#X obj 409 -127 <;
#X obj 170 -17 timer;
#X floatatom 409 -101 5 0 0 0 - - -;
#X obj 170 -66 sel 0 1;
#X obj 601 -59 sel 1 0;
#X obj 601 -7 timer;
#X floatatom 601 73 5 0 0 0 - - -;
#X obj 170 24 / 1000;
#X obj 601 34 / 1000;
#X floatatom 508 -143 5 0 0 0 - - -;
#X floatatom 170 91 5 0 0 0 - - -;
#X obj 389 264 s voiced;
#X obj 389 110 metro 1000;
#X msg 389 142 relative;
#X obj 389 79 r toggle;
#X obj 170 162 spigot;
#X obj 170 252 s voicedsd;
#X obj 203 230 s voicedavg;
#X obj 281 156 r clearg;
#X msg 281 234 \; voiced const 0;
#X obj 508 -215 loadbang;
#X obj 409 -226 r~ AudioData;
#X obj 170 197 sdmean;
#X text 358 -256 Receive signal from sound file or microphone;
#X obj 852 113 metro 1000;
#X msg 852 145 relative;
#X obj 852 82 r toggle;
#X obj 601 165 spigot;
#X obj 739 159 r clearg;
#X obj 601 200 sdmean;
#X text 358 59 Turn output on or off;
#X text 809 63 Turn output on or off;
#X text 545 277 Calculate standard dev and mean;
#X text 93 270 Calculate standard dev and mean;
#X text 743 286 Send data to array voiceless;
#X text 295 284 Send data to array voiced;
#X text 331 20 <= Convert from ms to s =>;
#X msg 508 -171 100;
#X obj 389 174 hist 0 10 20;
#X obj 852 177 hist 0 10 20;
#X msg 739 237 \; unvoiced const 0;
#X obj 852 267 s unvoiced;
#X obj 601 255 s unvoicedsd;
#X obj 634 233 s unvoicedavg;
#X text 551 -171 <= Threshold value;
#X connect 0 0 1 0;
#X connect 1 0 2 0;
#X connect 2 0 4 0;
#X connect 3 0 9 0;
#X connect 4 0 5 0;
#X connect 4 0 6 0;
#X connect 5 0 3 0;
#X connect 5 1 3 1;
#X connect 6 0 7 0;
#X connect 6 1 7 1;
#X connect 7 0 10 0;
#X connect 8 0 29 0;
#X connect 8 0 41 0;
#X connect 9 0 12 0;
#X connect 10 0 8 0;
#X connect 11 0 2 1;
#X connect 12 0 17 0;
#X connect 12 0 40 0;
#X connect 14 0 15 0;
#X connect 15 0 40 0;
#X connect 16 0 14 0;
#X connect 16 0 17 1;
#X connect 17 0 24 0;
#X connect 20 0 21 0;
#X connect 20 0 40 0;
#X connect 21 0 13 0;
#X connect 22 0 39 0;
#X connect 23 0 0 0;
#X connect 24 0 18 0;
#X connect 24 1 19 0;
#X connect 26 0 27 0;
#X connect 27 0 41 0;
#X connect 28 0 26 0;
#X connect 28 0 29 1;
#X connect 29 0 31 0;
#X connect 30 0 42 0;
#X connect 30 0 41 0;
#X connect 31 0 44 0;
#X connect 31 1 45 0;
#X connect 39 0 11 0;
#X connect 40 0 13 0;
#X connect 41 0 43 0;
#X connect 42 0 43 0;
