#N canvas 291 185 1109 562 10;
#X obj 405 -121 zerocross;
#X floatatom 405 -85 5 0 0 0 - - -;
#X obj 405 -54 <;
#X obj 319 55 timer;
#X floatatom 405 -28 5 0 0 0 - - -;
#X obj 319 6 sel 0 1;
#X obj 479 6 sel 1 0;
#X obj 479 58 timer;
#X floatatom 479 138 5 0 0 0 - - -;
#X obj 319 96 / 1000;
#X obj 479 94 / 1000;
#X floatatom 504 -70 5 0 0 0 - - -;
#X floatatom 319 141 5 0 0 0 - - -;
#X obj 47 134 s voiced;
#X obj 46 -6 metro 1000;
#X msg 46 26 relative;
#X obj 46 -37 r toggle;
#X obj 145 29 r voiced_data;
#X obj 319 190 s voiced_data;
#X obj 479 189 s voiceless_data;
#X obj 221 53 r toggle;
#X obj 145 70 spigot;
#X obj 145 105 sdmean;
#X obj 145 160 s voicedsd;
#X obj 178 138 s voicedavg;
#X obj -61 27 r clearg;
#X msg -61 104 \; voiced const 0;
#X obj 705 -5 metro 1000;
#X msg 705 27 relative;
#X obj 705 -36 r toggle;
#X obj 880 54 r toggle;
#X obj 804 71 spigot;
#X obj 804 106 sdmean;
#X obj 579 28 r clearg;
#X obj 706 135 s voiceless;
#X obj 804 161 s voicelesssd;
#X obj 836 139 s voicelessavg;
#X obj 804 30 r voiceless_data;
#X msg 579 105 \; voiceless const 0;
#X obj 504 -142 loadbang;
#X obj 405 -153 r~ AudioData;
#X obj 47 103 hist 0 10 100;
#X obj 704 104 hist 0 10 100;
#X msg 504 -98 135;
#X connect 0 0 1 0;
#X connect 1 0 2 0;
#X connect 2 0 4 0;
#X connect 3 0 9 0;
#X connect 4 0 5 0;
#X connect 4 0 6 0;
#X connect 5 0 3 0;
#X connect 5 1 3 1;
#X connect 6 0 7 0;
#X connect 6 1 7 1;
#X connect 7 0 10 0;
#X connect 8 0 19 0;
#X connect 9 0 12 0;
#X connect 10 0 8 0;
#X connect 11 0 2 1;
#X connect 12 0 18 0;
#X connect 14 0 15 0;
#X connect 15 0 41 0;
#X connect 16 0 14 0;
#X connect 17 0 21 0;
#X connect 17 0 41 0;
#X connect 20 0 21 1;
#X connect 21 0 22 0;
#X connect 22 0 23 0;
#X connect 22 1 24 0;
#X connect 25 0 26 0;
#X connect 25 0 41 0;
#X connect 26 0 13 0;
#X connect 27 0 28 0;
#X connect 28 0 42 0;
#X connect 29 0 27 0;
#X connect 30 0 31 1;
#X connect 31 0 32 0;
#X connect 32 0 35 0;
#X connect 32 1 36 0;
#X connect 33 0 38 0;
#X connect 33 0 42 0;
#X connect 37 0 31 0;
#X connect 37 0 42 0;
#X connect 38 0 34 0;
#X connect 39 0 43 0;
#X connect 40 0 0 0;
#X connect 41 0 13 0;
#X connect 42 0 34 0;
#X connect 43 0 11 0;
