#N canvas 1043 133 433 540 10;
#X obj 117 73 zerocross;
#X obj 74 24 adc~;
#X floatatom 117 108 5 0 0 0 - - -;
#X obj 117 168 <;
#X obj 30 310 timer;
#X floatatom 30 396 5 0 0 0 - - -;
#X floatatom 117 214 5 0 0 0 - - -;
#X obj 30 261 sel 0 1;
#X obj 193 259 sel 1 0;
#X obj 193 311 timer;
#X floatatom 193 391 5 0 0 0 - - -;
#X obj 30 351 / 1000;
#X obj 193 347 / 1000;
#X obj 29 497 s voiced;
#X obj 211 484 s voiceless;
#X msg 222 76 100;
#X obj 222 24 loadbang;
#X floatatom 222 126 5 0 0 0 - - -;
#X obj 199 455 hist 0 10 10;
#X obj 30 463 hist 0 10 10;
#X obj 99 385 metro 1000;
#X msg 99 417 relative;
#X obj 99 354 r toggle;
#X obj 285 385 metro 1000;
#X msg 285 417 relative;
#X obj 285 354 r toggle;
#X connect 0 0 2 0;
#X connect 1 0 0 0;
#X connect 2 0 3 0;
#X connect 3 0 6 0;
#X connect 4 0 11 0;
#X connect 5 0 19 0;
#X connect 6 0 7 0;
#X connect 6 0 8 0;
#X connect 7 0 4 0;
#X connect 7 1 4 1;
#X connect 8 0 9 0;
#X connect 8 1 9 1;
#X connect 9 0 12 0;
#X connect 10 0 18 0;
#X connect 11 0 5 0;
#X connect 12 0 10 0;
#X connect 15 0 17 0;
#X connect 16 0 15 0;
#X connect 17 0 3 1;
#X connect 18 0 14 0;
#X connect 19 0 13 0;
#X connect 20 0 21 0;
#X connect 21 0 19 0;
#X connect 22 0 20 0;
#X connect 23 0 24 0;
#X connect 24 0 18 0;
#X connect 25 0 23 0;
